# 3ds Max Wavefront OBJ Exporter v0.99 - (c)2007 guruware
# File Created: 13.12.2021 22:31:40

mtllib cart.mtl

#
# object car
#

v  -0.9092 0.0000 1.4733
v  -0.9092 -0.0000 0.9686
v  0.9092 -0.0000 0.9686
v  0.9092 0.0000 1.4733
v  -0.9092 0.0000 -0.9679
v  0.9092 0.0000 -0.9679
v  -0.9092 0.0000 -1.4733
v  0.9092 0.0000 -1.4733
v  -0.9092 1.2777 1.4733
v  0.9092 1.2777 1.4733
v  0.9092 1.2836 1.2998
v  -0.9092 1.2836 1.2998
v  0.9092 0.7231 1.0518
v  0.9092 0.6093 -1.2044
v  0.1869 0.6125 -1.2052
v  -0.1869 0.6125 -1.2047
v  -0.9092 0.6093 -1.2034
v  -0.9092 0.7231 1.0518
v  0.1869 0.9415 -1.3134
v  0.9092 0.9447 -1.3147
v  0.9092 0.9447 -1.4733
v  -0.1869 0.9415 -1.3129
v  -0.9092 0.9447 -1.3137
v  -0.9092 0.9447 -1.4723
v  0.9092 0.4837 1.4733
v  -0.9092 0.4837 1.4733
v  0.9092 0.4837 -0.9679
v  0.9092 0.4837 0.9686
v  0.9092 0.4837 -1.4733
v  0.9092 0.6093 -1.4733
v  -0.9092 0.4837 -1.4733
v  -0.9092 0.6093 -1.4723
v  -0.9092 0.4837 0.9686
v  -0.9092 0.4837 -0.9679
v  0.1873 0.7657 -0.8387
v  0.1873 1.0409 -1.0489
v  0.0004 1.0410 -1.0487
v  0.0004 0.7657 -0.8384
v  0.0000 0.6125 -1.2050
v  0.0000 0.9415 -1.3131
v  -0.1865 1.0410 -1.0485
v  -0.1865 0.7658 -0.8382
v  0.1872 0.6865 -0.9869
v  0.0002 0.6865 -0.9867
v  0.1872 0.9945 -1.1452
v  0.0002 0.9945 -1.1450
v  -0.1867 0.9946 -1.1447
v  -0.1867 0.6865 -0.9864
# 48 vertices

vn 0.0000 -1.0000 0.0000
vn 0.0000 0.9994 0.0341
vn 0.0000 0.8472 -0.5313
vn -0.0000 0.8472 -0.5313
vn 0.0001 0.8242 -0.5663
vn 0.0045 0.9987 -0.0504
vn 0.0018 0.9988 -0.0495
vn -0.0029 0.9989 -0.0475
vn -0.0026 0.9988 -0.0483
vn -0.0000 0.8240 -0.5666
vn -0.0003 0.9998 0.0186
vn -0.0044 1.0000 -0.0000
vn -0.0036 1.0000 0.0027
vn 0.0041 0.9988 0.0482
vn 0.0002 1.0000 0.0028
vn 0.0000 1.0000 -0.0000
vn -0.0000 -0.0000 1.0000
vn 0.0000 -0.0000 1.0000
vn -0.0000 0.0000 1.0000
vn 0.0000 0.0000 1.0000
vn 1.0000 0.0000 -0.0000
vn 0.0000 0.0000 -1.0000
vn 0.0000 0.0039 -1.0000
vn -0.0003 0.0002 -1.0000
vn -0.0000 0.0075 -1.0000
vn -0.0005 -0.0000 -1.0000
vn -1.0000 0.0000 -0.0000
vn 0.0003 0.3123 0.9500
vn -0.0005 0.0000 -1.0000
vn 0.0012 0.6071 0.7947
vn 0.0000 -1.0000 -0.0000
vn 0.0004 -0.9471 0.3210
vn 0.0002 -0.9470 0.3211
vn 1.0000 -0.0004 -0.0013
vn 1.0000 -0.0005 -0.0010
vn -0.0004 0.9537 -0.3008
vn -0.0002 0.9537 -0.3006
vn -0.0004 0.9536 -0.3010
vn -0.0002 0.9537 -0.3008
vn -1.0000 0.0003 0.0010
vn -1.0000 0.0007 0.0013
vn 0.0004 -0.9470 0.3211
vn 0.0002 -0.9470 0.3213
vn 0.0004 -0.8820 0.4712
vn 0.0002 -0.8819 0.4715
vn 1.0000 -0.0007 -0.0014
vn 1.0000 -0.0006 -0.0008
vn -0.0004 0.9008 -0.4343
vn -0.0001 0.9010 -0.4339
vn -0.0004 0.9006 -0.4346
vn -0.0001 0.9008 -0.4343
vn -1.0000 0.0005 0.0009
vn -1.0000 0.0010 0.0013
vn 0.0004 -0.8819 0.4715
vn 0.0002 -0.8818 0.4717
# 55 vertex normals

vt 1.0000 0.0000 0.0000
vt 1.0000 0.3333 0.0000
vt 0.0000 0.3333 0.0000
vt 0.0000 0.0000 0.0000
vt 1.0000 0.6667 0.0000
vt 0.0000 0.6667 0.0000
vt 1.0000 1.0000 0.0000
vt 0.0000 1.0000 0.0000
vt 1.0000 0.3671 0.0000
vt 0.7500 0.6667 0.0000
vt 0.2500 0.6667 0.0000
vt 0.0000 0.3671 0.0000
vt 1.0000 0.5000 0.0000
vt 0.0000 0.5000 0.0000
vt 0.3333 0.0000 0.0000
vt 0.6667 0.0000 0.0000
vt 0.6667 0.5000 0.0000
vt 0.3333 0.5000 0.0000
vt 0.3333 1.0000 0.0000
vt 0.6667 1.0000 0.0000
vt 0.3671 1.0000 0.0000
vt 0.6329 1.0000 0.0000
vt 0.5000 0.6667 0.0000
# 23 texture coords

o car
g car
usemtl wire_153228214
s 2
f 1/1/1 2/2/1 3/3/1 
f 3/3/1 4/4/1 1/1/1 
f 2/2/1 5/5/1 6/6/1 
f 6/6/1 3/3/1 2/2/1 
f 5/5/1 7/7/1 8/8/1 
f 8/8/1 6/6/1 5/5/1 
s 4
f 9/4/2 10/1/2 11/2/3 
f 11/2/3 12/3/4 9/4/2 
f 13/9/5 14/5/6 15/10/7 
f 13/9/5 15/10/7 16/11/8 
f 13/9/5 16/11/8 17/6/9 
f 13/9/5 17/6/9 18/12/10 
f 19/10/11 20/5/12 21/7/13 
f 22/11/14 19/10/11 21/7/13 
f 23/6/15 22/11/14 21/7/13 
f 23/6/15 21/7/13 24/8/16 
s 8
f 1/4/17 4/1/18 25/13/17 
f 25/13/17 26/14/19 1/4/17 
f 26/14/19 25/13/17 10/7/19 
f 10/7/19 9/8/20 26/14/19 
s 16
f 3/15/21 6/16/21 27/17/21 
f 27/17/21 28/18/21 3/15/21 
f 25/14/21 28/18/21 11/19/21 
f 11/19/21 10/8/21 25/14/21 
f 28/18/21 27/17/21 14/20/21 
f 28/18/21 14/20/21 13/21/21 
f 28/18/21 13/21/21 11/19/21 
f 27/17/21 29/13/21 30/7/21 
f 30/7/21 14/20/21 27/17/21 
s 32
f 8/4/22 7/1/22 31/13/23 
f 31/13/23 29/14/24 8/4/22 
f 29/14/24 31/13/23 32/7/25 
f 32/7/25 30/8/26 29/14/24 
s 64
f 5/15/27 2/16/27 33/17/27 
f 33/17/27 34/18/27 5/15/27 
f 31/14/27 34/18/27 17/19/27 
f 17/19/27 32/8/27 31/14/27 
f 33/17/27 12/20/27 18/22/27 
f 34/18/27 33/17/27 18/22/27 
f 34/18/27 18/22/27 17/19/27 
f 12/20/27 33/17/27 26/13/27 
f 26/13/27 9/7/27 12/20/27 
s off
f 16/11/28 22/11/28 23/6/28 
f 23/6/28 17/6/28 16/11/28 
f 14/5/21 30/7/21 21/7/21 
f 21/7/21 20/5/21 14/5/21 
f 30/7/29 32/8/29 24/8/29 
f 24/8/29 21/7/29 30/7/29 
f 32/8/27 17/6/27 23/6/27 
f 23/6/27 24/8/27 32/8/27 
s 4
f 12/3/4 11/2/3 13/9/5 
f 13/9/5 18/12/10 12/3/4 
s off
f 35/10/30 36/10/30 37/23/30 
f 37/23/30 38/23/30 35/10/30 
s 4
f 15/10/7 39/23/31 16/11/8 
f 22/11/14 40/23/16 19/10/11 
s off
f 38/23/30 37/23/30 41/11/30 
f 41/11/30 42/11/30 38/23/30 
f 14/5/28 20/5/28 19/10/28 
f 19/10/28 15/10/28 14/5/28 
f 39/23/32 15/10/32 43/10/32 
f 43/10/33 44/23/33 39/23/33 
f 15/10/34 19/10/34 45/10/34 
f 45/10/35 43/10/35 15/10/35 
f 19/10/36 40/23/36 46/23/36 
f 46/23/37 45/10/37 19/10/37 
f 40/23/38 22/11/38 47/11/38 
f 47/11/39 46/23/39 40/23/39 
f 22/11/40 16/11/40 48/11/40 
f 48/11/41 47/11/41 22/11/41 
f 16/11/42 39/23/42 44/23/42 
f 44/23/43 48/11/43 16/11/43 
f 44/23/44 43/10/44 35/10/44 
f 35/10/45 38/23/45 44/23/45 
f 43/10/46 45/10/46 36/10/46 
f 36/10/47 35/10/47 43/10/47 
f 45/10/48 46/23/48 37/23/48 
f 37/23/49 36/10/49 45/10/49 
f 46/23/50 47/11/50 41/11/50 
f 41/11/51 37/23/51 46/23/51 
f 47/11/52 48/11/52 42/11/52 
f 42/11/53 41/11/53 47/11/53 
f 48/11/54 44/23/54 38/23/54 
f 38/23/55 42/11/55 48/11/55 
# 84 faces

