# 3ds Max Wavefront OBJ Exporter v0.99 - (c)2007 guruware
# File Created: 13.12.2021 22:33:01

mtllib wheel2.mtl

#
# object wheel2
#

v  -0.4076 -0.1594 0.2871
v  -0.4076 -0.2147 0.1874
v  -0.4076 -0.2442 0.0651
v  -0.4076 -0.2442 -0.0651
v  -0.4076 -0.2147 -0.1874
v  -0.4076 -0.1594 -0.2871
v  -0.4076 -0.0848 -0.3521
v  -0.4076 0.0000 -0.3747
v  -0.4076 0.0848 -0.3521
v  -0.4076 0.1594 -0.2871
v  -0.4076 0.2147 -0.1874
v  -0.4076 0.2442 -0.0651
v  -0.4076 0.2442 0.0651
v  -0.4076 0.2147 0.1874
v  -0.4076 0.1594 0.2871
v  -0.4076 0.0848 0.3521
v  -0.4076 -0.0000 0.3747
v  -0.4076 -0.0848 0.3521
v  -0.6621 0.0848 0.3521
v  -0.6621 -0.0000 0.3747
v  -0.6621 0.1594 0.2871
v  -0.6621 0.2147 0.1874
v  -0.6621 0.2442 0.0651
v  -0.6621 0.2442 -0.0651
v  -0.6621 0.2147 -0.1874
v  -0.6621 0.1594 -0.2871
v  -0.6621 0.0848 -0.3521
v  -0.6621 0.0000 -0.3747
v  -0.6621 -0.0848 -0.3521
v  -0.6621 -0.1594 -0.2871
v  -0.6621 -0.2147 -0.1874
v  -0.6621 -0.2442 -0.0651
v  -0.6621 -0.2442 0.0651
v  -0.6621 -0.2147 0.1874
v  -0.6621 -0.1594 0.2871
v  -0.6621 -0.0848 0.3521
v  -0.7496 0.0848 0.1232
v  -0.7496 -0.0000 0.1311
v  -0.7496 0.1594 0.1005
v  -0.7496 0.2147 0.0656
v  -0.7496 0.2442 0.0228
v  -0.7496 0.2442 -0.0228
v  -0.7496 0.2147 -0.0656
v  -0.7496 0.1594 -0.1005
v  -0.7496 0.0848 -0.1232
v  -0.7496 -0.0000 -0.1311
v  -0.7496 -0.0848 -0.1232
v  -0.7496 -0.1594 -0.1005
v  -0.7496 -0.2147 -0.0656
v  -0.7496 -0.2442 -0.0228
v  -0.7496 -0.2442 0.0228
v  -0.7496 -0.2147 0.0656
v  -0.7496 -0.1594 0.1005
v  -0.7496 -0.0848 0.1232
v  -2.5608 0.0848 0.1232
v  -2.5608 -0.0000 0.1311
v  -2.5608 0.1594 0.1005
v  -2.5608 0.2147 0.0656
v  -2.5608 0.2442 0.0228
v  -2.5608 0.2442 -0.0228
v  -2.5608 0.2147 -0.0656
v  -2.5608 0.1594 -0.1005
v  -2.5608 0.0848 -0.1232
v  -2.5608 -0.0000 -0.1311
v  -2.5608 -0.0848 -0.1232
v  -2.5608 -0.1594 -0.1005
v  -2.5608 -0.2147 -0.0656
v  -2.5608 -0.2442 -0.0228
v  -2.5608 -0.2442 0.0228
v  -2.5608 -0.2147 0.0656
v  -2.5608 -0.1594 0.1005
v  -2.5608 -0.0848 0.1232
v  -2.6483 0.0848 0.3521
v  -2.6483 -0.0000 0.3747
v  -2.6483 0.1594 0.2871
v  -2.6483 0.2147 0.1874
v  -2.6483 0.2442 0.0651
v  -2.6483 0.2442 -0.0651
v  -2.6483 0.2147 -0.1874
v  -2.6483 0.1594 -0.2871
v  -2.6483 0.0848 -0.3521
v  -2.6483 -0.0000 -0.3747
v  -2.6483 -0.0848 -0.3521
v  -2.6483 -0.1594 -0.2871
v  -2.6483 -0.2147 -0.1874
v  -2.6483 -0.2442 -0.0651
v  -2.6483 -0.2442 0.0651
v  -2.6483 -0.2147 0.1874
v  -2.6483 -0.1594 0.2871
v  -2.6483 -0.0848 0.3521
v  -2.9028 0.0848 0.3521
v  -2.9028 -0.0000 0.3747
v  -2.9028 0.1594 0.2871
v  -2.9028 0.2147 0.1874
v  -2.9028 0.2442 0.0651
v  -2.9028 0.2442 -0.0651
v  -2.9028 0.2147 -0.1874
v  -2.9028 0.1594 -0.2871
v  -2.9028 0.0848 -0.3521
v  -2.9028 -0.0000 -0.3747
v  -2.9028 -0.0848 -0.3521
v  -2.9028 -0.1594 -0.2871
v  -2.9028 -0.2147 -0.1874
v  -2.9028 -0.2442 -0.0651
v  -2.9028 -0.2442 0.0651
v  -2.9028 -0.2147 0.1874
v  -2.9028 -0.1594 0.2871
v  -2.9028 -0.0848 0.3521
# 108 vertices

vn 1.0000 0.0000 -0.0000
vn 1.0000 -0.0000 -0.0000
vn 1.0000 0.0000 0.0000
vn 1.0000 -0.0000 0.0000
vn -0.0000 -0.0000 1.0000
vn -0.0000 0.4697 0.8828
vn -0.5805 0.3715 0.7245
vn -0.5874 -0.0017 0.8093
vn -0.0000 0.7775 0.6288
vn -0.5423 0.6386 0.5460
vn -0.0000 0.9318 0.3631
vn -0.3960 0.8417 0.3670
vn -0.0000 0.9930 0.1179
vn -0.0750 0.9868 0.1437
vn -0.0000 0.9930 -0.1179
vn -0.1900 0.9643 -0.1843
vn 0.0000 0.9318 -0.3631
vn -0.4763 0.8041 -0.3557
vn 0.0000 0.7775 -0.6288
vn -0.5640 0.6287 -0.5354
vn 0.0000 0.4697 -0.8828
vn -0.5860 0.3724 -0.7196
vn 0.0000 0.0000 -1.0000
vn -0.5874 0.0017 -0.8093
vn 0.0000 -0.4697 -0.8828
vn -0.5805 -0.3715 -0.7245
vn 0.0000 -0.7775 -0.6288
vn -0.5423 -0.6386 -0.5460
vn 0.0000 -0.9318 -0.3631
vn -0.3960 -0.8417 -0.3670
vn 0.0000 -0.9930 -0.1179
vn -0.0750 -0.9868 -0.1437
vn 0.0000 -0.9930 0.1179
vn -0.1900 -0.9643 0.1843
vn -0.0000 -0.9318 0.3631
vn -0.4763 -0.8041 0.3557
vn -0.0000 -0.7775 0.6288
vn -0.5640 -0.6287 0.5354
vn -0.0000 -0.4697 0.8828
vn -0.5860 -0.3724 0.7196
vn -0.6516 0.1510 0.7434
vn -0.6530 -0.0027 0.7573
vn -0.6317 0.3366 0.6983
vn -0.5260 0.6245 0.5774
vn -0.0876 0.9770 0.1946
vn -0.0736 0.9706 -0.2293
vn -0.3635 0.7271 -0.5824
vn -0.5919 0.3690 -0.7166
vn -0.6408 0.1606 -0.7507
vn -0.6530 0.0027 -0.7573
vn -0.6516 -0.1510 -0.7434
vn -0.6317 -0.3366 -0.6983
vn -0.5260 -0.6245 -0.5774
vn -0.0876 -0.9770 -0.1946
vn -0.0736 -0.9706 0.2293
vn -0.3635 -0.7271 0.5824
vn -0.5919 -0.3690 0.7166
vn -0.6408 -0.1606 0.7507
vn 0.6408 0.1606 0.7507
vn 0.6530 0.0027 0.7573
vn 0.5919 0.3690 0.7166
vn 0.3635 0.7271 0.5824
vn 0.0736 0.9706 0.2293
vn 0.0876 0.9770 -0.1946
vn 0.5259 0.6245 -0.5774
vn 0.6317 0.3366 -0.6983
vn 0.6516 0.1510 -0.7434
vn 0.6530 -0.0027 -0.7573
vn 0.6408 -0.1606 -0.7507
vn 0.5919 -0.3690 -0.7166
vn 0.3635 -0.7271 -0.5824
vn 0.0736 -0.9706 -0.2293
vn 0.0876 -0.9770 0.1946
vn 0.5259 -0.6245 0.5774
vn 0.6317 -0.3366 0.6983
vn 0.6516 -0.1510 0.7434
vn 0.5860 0.3724 0.7196
vn 0.5874 0.0017 0.8093
vn 0.5640 0.6287 0.5354
vn 0.4763 0.8041 0.3557
vn 0.1900 0.9643 0.1843
vn 0.0750 0.9868 -0.1437
vn 0.3960 0.8417 -0.3670
vn 0.5423 0.6386 -0.5460
vn 0.5805 0.3715 -0.7245
vn 0.5874 -0.0017 -0.8093
vn 0.5860 -0.3724 -0.7196
vn 0.5640 -0.6287 -0.5354
vn 0.4763 -0.8041 -0.3557
vn 0.1900 -0.9643 -0.1843
vn 0.0750 -0.9868 0.1437
vn 0.3960 -0.8417 0.3670
vn 0.5423 -0.6386 0.5460
vn 0.5805 -0.3715 0.7245
vn 0.0000 0.9930 0.1179
vn 0.0000 0.9930 -0.1179
vn -0.0000 -0.9930 -0.1179
vn -0.0000 -0.9930 0.1179
vn -1.0000 -0.0000 -0.0000
vn -1.0000 -0.0000 0.0000
vn -1.0000 0.0000 0.0000
vn -1.0000 0.0000 -0.0000
# 102 vertex normals

vt 0.1953 0.0000 -0.3473
vt 0.0874 0.0000 -0.6527
vt 0.0292 0.0000 -0.8794
vt 0.0278 0.0000 -1.0000
vt 0.0833 0.0000 -1.0000
vt 0.1891 0.0000 -0.8794
vt 0.3325 0.0000 -0.6527
vt 0.4960 0.0000 -0.3473
vt 0.6600 0.0000 -0.0000
vt 0.8047 0.0000 0.3473
vt 0.9126 0.0000 0.6527
vt 0.9708 0.0000 0.8794
vt 0.9722 0.0000 1.0000
vt 0.9167 0.0000 1.0000
vt 0.8611 0.0000 1.0000
vt 0.8056 0.0000 1.0000
vt 0.7500 0.0000 1.0000
vt 0.3400 0.0000 0.0000
vt 0.8056 0.2000 1.0000
vt 0.7500 0.2000 1.0000
vt 0.8611 0.2000 1.0000
vt 0.9167 0.2000 1.0000
vt 0.9722 0.2000 1.0000
vt -0.0278 0.0000 1.0000
vt 0.0278 0.0000 1.0000
vt 0.0278 0.2000 1.0000
vt -0.0278 0.2000 1.0000
vt 0.0833 0.0000 1.0000
vt 0.0833 0.2000 1.0000
vt 0.1389 0.0000 1.0000
vt 0.1389 0.2000 1.0000
vt 0.1944 0.0000 1.0000
vt 0.1944 0.2000 1.0000
vt 0.2500 0.0000 1.0000
vt 0.2500 0.2000 1.0000
vt 0.3056 0.0000 1.0000
vt 0.3056 0.2000 1.0000
vt 0.3611 0.0000 1.0000
vt 0.3611 0.2000 1.0000
vt 0.4167 0.0000 1.0000
vt 0.4167 0.2000 1.0000
vt 0.4722 0.0000 1.0000
vt 0.4722 0.2000 1.0000
vt 0.5278 0.0000 1.0000
vt 0.5278 0.2000 1.0000
vt 0.5833 0.0000 1.0000
vt 0.5833 0.2000 1.0000
vt 0.6389 0.0000 1.0000
vt 0.6389 0.2000 1.0000
vt 0.6944 0.0000 1.0000
vt 0.6944 0.2000 1.0000
vt 0.8056 0.4000 1.0000
vt 0.7500 0.4000 1.0000
vt 0.8611 0.4000 1.0000
vt 0.9167 0.4000 1.0000
vt 0.9722 0.4000 1.0000
vt 0.0278 0.4000 1.0000
vt -0.0278 0.4000 1.0000
vt 0.0833 0.4000 1.0000
vt 0.1389 0.4000 1.0000
vt 0.1944 0.4000 1.0000
vt 0.2500 0.4000 1.0000
vt 0.3056 0.4000 1.0000
vt 0.3611 0.4000 1.0000
vt 0.4167 0.4000 1.0000
vt 0.4722 0.4000 1.0000
vt 0.5278 0.4000 1.0000
vt 0.5833 0.4000 1.0000
vt 0.6389 0.4000 1.0000
vt 0.6944 0.4000 1.0000
vt 0.8056 0.6000 1.0000
vt 0.7500 0.6000 1.0000
vt 0.8611 0.6000 1.0000
vt 0.9167 0.6000 1.0000
vt 0.9722 0.6000 1.0000
vt 0.0278 0.6000 1.0000
vt -0.0278 0.6000 1.0000
vt 0.0833 0.6000 1.0000
vt 0.1389 0.6000 1.0000
vt 0.1944 0.6000 1.0000
vt 0.2500 0.6000 1.0000
vt 0.3056 0.6000 1.0000
vt 0.3611 0.6000 1.0000
vt 0.4167 0.6000 1.0000
vt 0.4722 0.6000 1.0000
vt 0.5278 0.6000 1.0000
vt 0.5833 0.6000 1.0000
vt 0.6389 0.6000 1.0000
vt 0.6944 0.6000 1.0000
vt 0.8056 0.8000 1.0000
vt 0.7500 0.8000 1.0000
vt 0.8611 0.8000 1.0000
vt 0.9167 0.8000 1.0000
vt 0.9722 0.8000 1.0000
vt 0.0278 0.8000 1.0000
vt -0.0278 0.8000 1.0000
vt 0.0833 0.8000 1.0000
vt 0.1389 0.8000 1.0000
vt 0.1944 0.8000 1.0000
vt 0.2500 0.8000 1.0000
vt 0.3056 0.8000 1.0000
vt 0.3611 0.8000 1.0000
vt 0.4167 0.8000 1.0000
vt 0.4722 0.8000 1.0000
vt 0.5278 0.8000 1.0000
vt 0.5833 0.8000 1.0000
vt 0.6389 0.8000 1.0000
vt 0.6944 0.8000 1.0000
vt 0.8056 1.0000 1.0000
vt 0.7500 1.0000 1.0000
vt 0.8611 1.0000 1.0000
vt 0.9167 1.0000 1.0000
vt 0.9722 1.0000 1.0000
vt 0.0278 1.0000 1.0000
vt -0.0278 1.0000 1.0000
vt 0.0833 1.0000 1.0000
vt 0.1389 1.0000 1.0000
vt 0.1944 1.0000 1.0000
vt 0.2500 1.0000 1.0000
vt 0.3056 1.0000 1.0000
vt 0.3611 1.0000 1.0000
vt 0.4167 1.0000 1.0000
vt 0.4722 1.0000 1.0000
vt 0.5278 1.0000 1.0000
vt 0.5833 1.0000 1.0000
vt 0.6389 1.0000 1.0000
vt 0.6944 1.0000 1.0000
vt 0.9708 1.0000 0.8794
vt 0.9126 1.0000 0.6527
vt 0.8047 1.0000 0.3473
vt 0.6600 1.0000 0.0000
vt 0.4960 1.0000 -0.3473
vt 0.3325 1.0000 -0.6527
vt 0.1891 1.0000 -0.8794
vt 0.0833 1.0000 -1.0000
vt 0.0278 1.0000 -1.0000
vt 0.0292 1.0000 -0.8794
vt 0.0874 1.0000 -0.6527
vt 0.1953 1.0000 -0.3473
# 139 texture coords

o wheel2
g wheel2
usemtl wire_224086086
s 1
f 1/1/1 2/2/2 3/3/1 
f 3/3/1 4/4/3 5/5/3 
f 5/5/3 6/6/2 7/7/2 
f 3/3/1 5/5/3 7/7/2 
f 7/7/2 8/8/3 9/9/1 
f 9/9/1 10/10/1 11/11/1 
f 7/7/2 9/9/1 11/11/1 
f 11/11/1 12/12/4 13/13/1 
f 13/13/1 14/14/3 15/15/3 
f 11/11/1 13/13/1 15/15/3 
f 7/7/2 11/11/1 15/15/3 
f 3/3/1 7/7/2 15/15/3 
f 15/15/3 16/16/3 17/17/3 
f 3/3/1 15/15/3 17/17/3 
f 1/1/1 3/3/1 17/17/3 
f 18/18/1 1/1/1 17/17/3 
s 8
f 17/17/5 16/16/6 19/19/7 
f 19/19/7 20/20/8 17/17/5 
f 16/16/6 15/15/9 21/21/10 
f 21/21/10 19/19/7 16/16/6 
f 15/15/9 14/14/11 22/22/12 
f 22/22/12 21/21/10 15/15/9 
f 14/14/11 13/13/13 23/23/14 
f 23/23/14 22/22/12 14/14/11 
f 13/24/13 12/25/15 24/26/16 
f 24/26/16 23/27/14 13/24/13 
f 12/25/15 11/28/17 25/29/18 
f 25/29/18 24/26/16 12/25/15 
f 11/28/17 10/30/19 26/31/20 
f 26/31/20 25/29/18 11/28/17 
f 10/30/19 9/32/21 27/33/22 
f 27/33/22 26/31/20 10/30/19 
f 9/32/21 8/34/23 28/35/24 
f 28/35/24 27/33/22 9/32/21 
f 8/34/23 7/36/25 29/37/26 
f 29/37/26 28/35/24 8/34/23 
f 7/36/25 6/38/27 30/39/28 
f 30/39/28 29/37/26 7/36/25 
f 6/38/27 5/40/29 31/41/30 
f 31/41/30 30/39/28 6/38/27 
f 5/40/29 4/42/31 32/43/32 
f 32/43/32 31/41/30 5/40/29 
f 4/42/31 3/44/33 33/45/34 
f 33/45/34 32/43/32 4/42/31 
f 3/44/33 2/46/35 34/47/36 
f 34/47/36 33/45/34 3/44/33 
f 2/46/35 1/48/37 35/49/38 
f 35/49/38 34/47/36 2/46/35 
f 1/48/37 18/50/39 36/51/40 
f 36/51/40 35/49/38 1/48/37 
f 18/50/39 17/17/5 20/20/8 
f 20/20/8 36/51/40 18/50/39 
f 20/20/8 19/19/7 37/52/41 
f 37/52/41 38/53/42 20/20/8 
f 19/19/7 21/21/10 39/54/43 
f 39/54/43 37/52/41 19/19/7 
f 21/21/10 22/22/12 40/55/44 
f 40/55/44 39/54/43 21/21/10 
f 22/22/12 23/23/14 41/56/45 
f 41/56/45 40/55/44 22/22/12 
f 23/27/14 24/26/16 42/57/46 
f 42/57/46 41/58/45 23/27/14 
f 24/26/16 25/29/18 43/59/47 
f 43/59/47 42/57/46 24/26/16 
f 25/29/18 26/31/20 44/60/48 
f 44/60/48 43/59/47 25/29/18 
f 26/31/20 27/33/22 45/61/49 
f 45/61/49 44/60/48 26/31/20 
f 27/33/22 28/35/24 46/62/50 
f 46/62/50 45/61/49 27/33/22 
f 28/35/24 29/37/26 47/63/51 
f 47/63/51 46/62/50 28/35/24 
f 29/37/26 30/39/28 48/64/52 
f 48/64/52 47/63/51 29/37/26 
f 30/39/28 31/41/30 49/65/53 
f 49/65/53 48/64/52 30/39/28 
f 31/41/30 32/43/32 50/66/54 
f 50/66/54 49/65/53 31/41/30 
f 32/43/32 33/45/34 51/67/55 
f 51/67/55 50/66/54 32/43/32 
f 33/45/34 34/47/36 52/68/56 
f 52/68/56 51/67/55 33/45/34 
f 34/47/36 35/49/38 53/69/57 
f 53/69/57 52/68/56 34/47/36 
f 35/49/38 36/51/40 54/70/58 
f 54/70/58 53/69/57 35/49/38 
f 36/51/40 20/20/8 38/53/42 
f 38/53/42 54/70/58 36/51/40 
f 38/53/42 37/52/41 55/71/59 
f 55/71/59 56/72/60 38/53/42 
f 37/52/41 39/54/43 57/73/61 
f 57/73/61 55/71/59 37/52/41 
f 39/54/43 40/55/44 58/74/62 
f 58/74/62 57/73/61 39/54/43 
f 40/55/44 41/56/45 59/75/63 
f 59/75/63 58/74/62 40/55/44 
f 41/58/45 42/57/46 60/76/64 
f 60/76/64 59/77/63 41/58/45 
f 42/57/46 43/59/47 61/78/65 
f 61/78/65 60/76/64 42/57/46 
f 43/59/47 44/60/48 62/79/66 
f 62/79/66 61/78/65 43/59/47 
f 44/60/48 45/61/49 63/80/67 
f 63/80/67 62/79/66 44/60/48 
f 45/61/49 46/62/50 64/81/68 
f 64/81/68 63/80/67 45/61/49 
f 46/62/50 47/63/51 65/82/69 
f 65/82/69 64/81/68 46/62/50 
f 47/63/51 48/64/52 66/83/70 
f 66/83/70 65/82/69 47/63/51 
f 48/64/52 49/65/53 67/84/71 
f 67/84/71 66/83/70 48/64/52 
f 49/65/53 50/66/54 68/85/72 
f 68/85/72 67/84/71 49/65/53 
f 50/66/54 51/67/55 69/86/73 
f 69/86/73 68/85/72 50/66/54 
f 51/67/55 52/68/56 70/87/74 
f 70/87/74 69/86/73 51/67/55 
f 52/68/56 53/69/57 71/88/75 
f 71/88/75 70/87/74 52/68/56 
f 53/69/57 54/70/58 72/89/76 
f 72/89/76 71/88/75 53/69/57 
f 54/70/58 38/53/42 56/72/60 
f 56/72/60 72/89/76 54/70/58 
f 56/72/60 55/71/59 73/90/77 
f 73/90/77 74/91/78 56/72/60 
f 55/71/59 57/73/61 75/92/79 
f 75/92/79 73/90/77 55/71/59 
f 57/73/61 58/74/62 76/93/80 
f 76/93/80 75/92/79 57/73/61 
f 58/74/62 59/75/63 77/94/81 
f 77/94/81 76/93/80 58/74/62 
f 59/77/63 60/76/64 78/95/82 
f 78/95/82 77/96/81 59/77/63 
f 60/76/64 61/78/65 79/97/83 
f 79/97/83 78/95/82 60/76/64 
f 61/78/65 62/79/66 80/98/84 
f 80/98/84 79/97/83 61/78/65 
f 62/79/66 63/80/67 81/99/85 
f 81/99/85 80/98/84 62/79/66 
f 63/80/67 64/81/68 82/100/86 
f 82/100/86 81/99/85 63/80/67 
f 64/81/68 65/82/69 83/101/87 
f 83/101/87 82/100/86 64/81/68 
f 65/82/69 66/83/70 84/102/88 
f 84/102/88 83/101/87 65/82/69 
f 66/83/70 67/84/71 85/103/89 
f 85/103/89 84/102/88 66/83/70 
f 67/84/71 68/85/72 86/104/90 
f 86/104/90 85/103/89 67/84/71 
f 68/85/72 69/86/73 87/105/91 
f 87/105/91 86/104/90 68/85/72 
f 69/86/73 70/87/74 88/106/92 
f 88/106/92 87/105/91 69/86/73 
f 70/87/74 71/88/75 89/107/93 
f 89/107/93 88/106/92 70/87/74 
f 71/88/75 72/89/76 90/108/94 
f 90/108/94 89/107/93 71/88/75 
f 72/89/76 56/72/60 74/91/78 
f 74/91/78 90/108/94 72/89/76 
f 74/91/78 73/90/77 91/109/6 
f 91/109/6 92/110/5 74/91/78 
f 73/90/77 75/92/79 93/111/9 
f 93/111/9 91/109/6 73/90/77 
f 75/92/79 76/93/80 94/112/11 
f 94/112/11 93/111/9 75/92/79 
f 76/93/80 77/94/81 95/113/95 
f 95/113/95 94/112/11 76/93/80 
f 77/96/81 78/95/82 96/114/96 
f 96/114/96 95/115/95 77/96/81 
f 78/95/82 79/97/83 97/116/17 
f 97/116/17 96/114/96 78/95/82 
f 79/97/83 80/98/84 98/117/19 
f 98/117/19 97/116/17 79/97/83 
f 80/98/84 81/99/85 99/118/21 
f 99/118/21 98/117/19 80/98/84 
f 81/99/85 82/100/86 100/119/23 
f 100/119/23 99/118/21 81/99/85 
f 82/100/86 83/101/87 101/120/25 
f 101/120/25 100/119/23 82/100/86 
f 83/101/87 84/102/88 102/121/27 
f 102/121/27 101/120/25 83/101/87 
f 84/102/88 85/103/89 103/122/29 
f 103/122/29 102/121/27 84/102/88 
f 85/103/89 86/104/90 104/123/97 
f 104/123/97 103/122/29 85/103/89 
f 86/104/90 87/105/91 105/124/98 
f 105/124/98 104/123/97 86/104/90 
f 87/105/91 88/106/92 106/125/35 
f 106/125/35 105/124/98 87/105/91 
f 88/106/92 89/107/93 107/126/37 
f 107/126/37 106/125/35 88/106/92 
f 89/107/93 90/108/94 108/127/39 
f 108/127/39 107/126/37 89/107/93 
f 90/108/94 74/91/78 92/110/5 
f 92/110/5 108/127/39 90/108/94 
s 1
f 92/110/99 91/109/99 93/111/100 
f 93/111/100 94/112/99 95/113/99 
f 95/113/99 96/128/99 97/129/100 
f 93/111/100 95/113/99 97/129/100 
f 97/129/100 98/130/100 99/131/100 
f 99/131/100 100/132/99 101/133/101 
f 97/129/100 99/131/100 101/133/101 
f 101/133/101 102/134/101 103/135/99 
f 103/135/99 104/136/99 105/137/101 
f 101/133/101 103/135/99 105/137/101 
f 97/129/100 101/133/101 105/137/101 
f 93/111/100 97/129/100 105/137/101 
f 105/137/101 106/138/102 107/139/101 
f 93/111/100 105/137/101 107/139/101 
f 92/110/99 93/111/100 107/139/101 
f 108/127/99 92/110/99 107/139/101 
# 212 faces

